<svg xmlns="http://www.w3.org/2000/svg" xmlns:xlink="http://www.w3.org/1999/xlink" width="512" height="512" fill="none" viewBox="0 0 512 512"><rect id="r4" width="512" height="512" x="0" y="0" fill="url(#r5)" stroke="#FFF" stroke-opacity="100%" stroke-width="0" paint-order="stroke" rx="128"/><clipPath id="clip"><use xlink:href="#r4"/></clipPath><defs><linearGradient id="r5" gradientTransform="rotate()" gradientUnits="userSpaceOnUse" style="transform-origin:center center"><stop stop-color="#10B981"/><stop offset="1" stop-color="#047857"/></linearGradient><radialGradient id="r6" cx="0" cy="0" r="1" gradientTransform="translate(256) rotate(90) scale(512)" gradientUnits="userSpaceOnUse"><stop stop-color="#fff"/><stop offset="1" stop-color="#fff" stop-opacity="0"/></radialGradient></defs><svg xmlns="http://www.w3.org/2000/svg" width="352" height="352" x="80" y="80" fill="none" alignment-baseline="middle" viewBox="0 0 16 16" style="color:#fff"><path stroke="currentColor" stroke-linecap="round" stroke-linejoin="round" stroke-width="1.5" d="M3.25 1.75c-1.5 0-1.5 1.5-1.5 1.5m11-1.5c1.5 0 1.5 1.5 1.5 1.5m-8.5 8h-4l2-3.25V6a4.25 4.25 0 0 1 8.5 0v2l2 3.25h-4m-4.5 0V12a2.25 2.25 0 0 0 4.5 0v-.75m-4.5 0h4.5"/></svg></svg>